<?xml version="1.0" encoding="UTF-8" standalone="no"?>
<!-- Created with Inkscape (http://www.inkscape.org/) -->

<svg
   xmlns:dc="http://purl.org/dc/elements/1.1/"
   xmlns:cc="http://creativecommons.org/ns#"
   xmlns:rdf="http://www.w3.org/1999/02/22-rdf-syntax-ns#"
   xmlns:svg="http://www.w3.org/2000/svg"
   xmlns="http://www.w3.org/2000/svg"
   xmlns:sodipodi="http://sodipodi.sourceforge.net/DTD/sodipodi-0.dtd"
   xmlns:inkscape="http://www.inkscape.org/namespaces/inkscape"
   width="744.09448819"
   height="1052.3622047"
   id="svg2"
   version="1.1"
   inkscape:version="0.48.2 r9819"
   sodipodi:docname="spikes.svg">
  <defs
     id="defs4" />
  <sodipodi:namedview
     id="base"
     pagecolor="#ffffff"
     bordercolor="#666666"
     borderopacity="1.0"
     inkscape:pageopacity="0.0"
     inkscape:pageshadow="2"
     inkscape:zoom="3.959798"
     inkscape:cx="298.73275"
     inkscape:cy="879.12803"
     inkscape:document-units="px"
     inkscape:current-layer="layer1"
     showgrid="true"
     inkscape:snap-grids="true"
     inkscape:window-width="1375"
     inkscape:window-height="856"
     inkscape:window-x="65"
     inkscape:window-y="0"
     inkscape:window-maximized="1">
    <inkscape:grid
       type="xygrid"
       id="grid2987" />
  </sodipodi:namedview>
  <metadata
     id="metadata7">
    <rdf:RDF>
      <cc:Work
         rdf:about="">
        <dc:format>image/svg+xml</dc:format>
        <dc:type
           rdf:resource="http://purl.org/dc/dcmitype/StillImage" />
        <dc:title></dc:title>
      </cc:Work>
    </rdf:RDF>
  </metadata>
  <g
     inkscape:label="Layer 1"
     inkscape:groupmode="layer"
     id="layer1">
    <path
       style="fill:#000000;fill-opacity:1;stroke:#000000;stroke-width:0.9628647px;stroke-linecap:butt;stroke-linejoin:miter;stroke-opacity:1"
       d="m 215.10502,164.49759 10.51528,-19.83774 10.51527,19.83774 c 0,0 -2.10305,6.61258 -10.51527,6.61258 -7.01019,0 -11.26638,-4.25093 -10.51528,-6.61258 z"
       id="path2985"
       inkscape:connector-curvature="0"
       sodipodi:nodetypes="cccsc"
       inkscape:export-filename="/Users/noelbenzinger/Documents/gj/spikes.png"
       inkscape:export-xdpi="90"
       inkscape:export-ydpi="90" />
    <path
       sodipodi:nodetypes="cccsc"
       inkscape:connector-curvature="0"
       id="path2989"
       d="m 215.10502,164.49759 10.51528,-19.83774 8.74493,16.49789 c 0,0 -0.95232,7.61453 -9.36455,7.61453 -7.01018,0 -10.64676,-1.91303 -9.89566,-4.27468 z"
       style="fill:#2e00f7;fill-opacity:1;stroke:#000000;stroke-width:0.9628647px;stroke-linecap:butt;stroke-linejoin:miter;stroke-opacity:1"
       inkscape:export-filename="/Users/noelbenzinger/Documents/gj/spikes.png"
       inkscape:export-xdpi="90"
       inkscape:export-ydpi="90" />
    <path
       sodipodi:nodetypes="cccsc"
       inkscape:connector-curvature="0"
       id="path3791"
       d="m 236.05978,164.49759 10.51527,-19.83774 10.51527,19.83774 c 0,0 -2.10304,6.61258 -10.51527,6.61258 -7.01019,0 -11.26638,-4.25093 -10.51527,-6.61258 z"
       style="fill:#000000;fill-opacity:1;stroke:#000000;stroke-width:0.9628647px;stroke-linecap:butt;stroke-linejoin:miter;stroke-opacity:1"
       inkscape:export-filename="/Users/noelbenzinger/Documents/gj/spikes.png"
       inkscape:export-xdpi="90"
       inkscape:export-ydpi="90" />
    <path
       style="fill:#2e00f7;fill-opacity:1;stroke:#000000;stroke-width:0.9628647px;stroke-linecap:butt;stroke-linejoin:miter;stroke-opacity:1"
       d="m 236.05978,164.49759 10.51527,-19.83774 8.74495,16.49789 c 0,0 -0.95234,7.61453 -9.36457,7.61453 -7.01018,0 -10.64676,-1.91303 -9.89565,-4.27468 z"
       id="path3793"
       inkscape:connector-curvature="0"
       sodipodi:nodetypes="cccsc"
       inkscape:export-filename="/Users/noelbenzinger/Documents/gj/spikes.png"
       inkscape:export-xdpi="90"
       inkscape:export-ydpi="90" />
    <path
       style="fill:#000000;fill-opacity:1;stroke:#000000;stroke-width:0.9628647px;stroke-linecap:butt;stroke-linejoin:miter;stroke-opacity:1"
       d="m 257.01453,164.49759 10.51527,-19.83774 10.51528,19.83774 c 0,0 -2.10305,6.61258 -10.51528,6.61258 -7.01018,0 -11.26637,-4.25093 -10.51527,-6.61258 z"
       id="path3795"
       inkscape:connector-curvature="0"
       sodipodi:nodetypes="cccsc"
       inkscape:export-filename="/Users/noelbenzinger/Documents/gj/spikes.png"
       inkscape:export-xdpi="90"
       inkscape:export-ydpi="90" />
    <path
       sodipodi:nodetypes="cccsc"
       inkscape:connector-curvature="0"
       id="path3797"
       d="m 257.01453,164.49759 10.51527,-19.83774 8.74495,16.49789 c 0,0 -0.95233,7.61453 -9.36456,7.61453 -7.01019,0 -10.64676,-1.91303 -9.89566,-4.27468 z"
       style="fill:#2e00f7;fill-opacity:1;stroke:#000000;stroke-width:0.9628647px;stroke-linecap:butt;stroke-linejoin:miter;stroke-opacity:1"
       inkscape:export-filename="/Users/noelbenzinger/Documents/gj/spikes.png"
       inkscape:export-xdpi="90"
       inkscape:export-ydpi="90" />
    <path
       sodipodi:nodetypes="cccsc"
       inkscape:connector-curvature="0"
       id="path3799"
       d="m 215.10502,182.791 10.51528,-19.83774 10.51527,19.83774 c 0,0 -2.10305,6.61257 -10.51527,6.61257 -7.01019,0 -11.26638,-4.25091 -10.51528,-6.61257 z"
       style="fill:#000000;fill-opacity:1;stroke:#000000;stroke-width:0.9628647px;stroke-linecap:butt;stroke-linejoin:miter;stroke-opacity:1"
       inkscape:export-filename="/Users/noelbenzinger/Documents/gj/spikes.png"
       inkscape:export-xdpi="90"
       inkscape:export-ydpi="90" />
    <path
       style="fill:#2e00f7;fill-opacity:1;stroke:#000000;stroke-width:0.9628647px;stroke-linecap:butt;stroke-linejoin:miter;stroke-opacity:1"
       d="m 215.10502,182.791 10.51528,-19.83774 8.74493,16.49788 c 0,0 -0.95232,7.61454 -9.36455,7.61454 -7.01018,0 -10.64676,-1.91302 -9.89566,-4.27468 z"
       id="path3801"
       inkscape:connector-curvature="0"
       sodipodi:nodetypes="cccsc"
       inkscape:export-filename="/Users/noelbenzinger/Documents/gj/spikes.png"
       inkscape:export-xdpi="90"
       inkscape:export-ydpi="90" />
    <path
       style="fill:#000000;fill-opacity:1;stroke:#000000;stroke-width:0.9628647px;stroke-linecap:butt;stroke-linejoin:miter;stroke-opacity:1"
       d="m 215.10502,201.0844 10.51528,-19.83774 10.51527,19.83774 c 0,0 -2.10305,6.61259 -10.51527,6.61259 -7.01019,0 -11.26638,-4.25093 -10.51528,-6.61259 z"
       id="path3803"
       inkscape:connector-curvature="0"
       sodipodi:nodetypes="cccsc"
       inkscape:export-filename="/Users/noelbenzinger/Documents/gj/spikes.png"
       inkscape:export-xdpi="90"
       inkscape:export-ydpi="90" />
    <path
       sodipodi:nodetypes="cccsc"
       inkscape:connector-curvature="0"
       id="path3805"
       d="m 215.10502,201.0844 10.51528,-19.83774 8.74493,16.4979 c 0,0 -0.95232,7.61453 -9.36455,7.61453 -7.01018,0 -10.64676,-1.91303 -9.89566,-4.27469 z"
       style="fill:#2e00f7;fill-opacity:1;stroke:#000000;stroke-width:0.9628647px;stroke-linecap:butt;stroke-linejoin:miter;stroke-opacity:1"
       inkscape:export-filename="/Users/noelbenzinger/Documents/gj/spikes.png"
       inkscape:export-xdpi="90"
       inkscape:export-ydpi="90" />
    <path
       sodipodi:nodetypes="cccsc"
       inkscape:connector-curvature="0"
       id="path3807"
       d="m 236.05978,182.791 10.51527,-19.83774 10.51527,19.83774 c 0,0 -2.10304,6.61257 -10.51527,6.61257 -7.01019,0 -11.26638,-4.25091 -10.51527,-6.61257 z"
       style="fill:#000000;fill-opacity:1;stroke:#000000;stroke-width:0.9628647px;stroke-linecap:butt;stroke-linejoin:miter;stroke-opacity:1"
       inkscape:export-filename="/Users/noelbenzinger/Documents/gj/spikes.png"
       inkscape:export-xdpi="90"
       inkscape:export-ydpi="90" />
    <path
       style="fill:#2e00f7;fill-opacity:1;stroke:#000000;stroke-width:0.9628647px;stroke-linecap:butt;stroke-linejoin:miter;stroke-opacity:1"
       d="m 236.05978,182.791 10.51527,-19.83774 8.74495,16.49788 c 0,0 -0.95234,7.61454 -9.36457,7.61454 -7.01018,0 -10.64676,-1.91302 -9.89565,-4.27468 z"
       id="path3809"
       inkscape:connector-curvature="0"
       sodipodi:nodetypes="cccsc"
       inkscape:export-filename="/Users/noelbenzinger/Documents/gj/spikes.png"
       inkscape:export-xdpi="90"
       inkscape:export-ydpi="90" />
    <path
       style="fill:#000000;fill-opacity:1;stroke:#000000;stroke-width:0.9628647px;stroke-linecap:butt;stroke-linejoin:miter;stroke-opacity:1"
       d="m 236.05978,201.0844 10.51527,-19.83774 10.51527,19.83774 c 0,0 -2.10304,6.61259 -10.51527,6.61259 -7.01019,0 -11.26638,-4.25093 -10.51527,-6.61259 z"
       id="path3811"
       inkscape:connector-curvature="0"
       sodipodi:nodetypes="cccsc"
       inkscape:export-filename="/Users/noelbenzinger/Documents/gj/spikes.png"
       inkscape:export-xdpi="90"
       inkscape:export-ydpi="90" />
    <path
       sodipodi:nodetypes="cccsc"
       inkscape:connector-curvature="0"
       id="path3813"
       d="m 236.05978,201.0844 10.51527,-19.83774 8.74495,16.4979 c 0,0 -0.95234,7.61453 -9.36457,7.61453 -7.01018,0 -10.64676,-1.91303 -9.89565,-4.27469 z"
       style="fill:#2e00f7;fill-opacity:1;stroke:#000000;stroke-width:0.9628647px;stroke-linecap:butt;stroke-linejoin:miter;stroke-opacity:1"
       inkscape:export-filename="/Users/noelbenzinger/Documents/gj/spikes.png"
       inkscape:export-xdpi="90"
       inkscape:export-ydpi="90" />
    <path
       sodipodi:nodetypes="cccsc"
       inkscape:connector-curvature="0"
       id="path3815"
       d="m 257.01453,182.791 10.51527,-19.83774 10.51528,19.83774 c 0,0 -2.10305,6.61257 -10.51528,6.61257 -7.01018,0 -11.26637,-4.25091 -10.51527,-6.61257 z"
       style="fill:#000000;fill-opacity:1;stroke:#000000;stroke-width:0.9628647px;stroke-linecap:butt;stroke-linejoin:miter;stroke-opacity:1"
       inkscape:export-filename="/Users/noelbenzinger/Documents/gj/spikes.png"
       inkscape:export-xdpi="90"
       inkscape:export-ydpi="90" />
    <path
       style="fill:#2e00f7;fill-opacity:1;stroke:#000000;stroke-width:0.9628647px;stroke-linecap:butt;stroke-linejoin:miter;stroke-opacity:1"
       d="m 257.01453,182.791 10.51527,-19.83774 8.74495,16.49788 c 0,0 -0.95233,7.61454 -9.36456,7.61454 -7.01019,0 -10.64676,-1.91302 -9.89566,-4.27468 z"
       id="path3817"
       inkscape:connector-curvature="0"
       sodipodi:nodetypes="cccsc"
       inkscape:export-filename="/Users/noelbenzinger/Documents/gj/spikes.png"
       inkscape:export-xdpi="90"
       inkscape:export-ydpi="90" />
    <path
       style="fill:#000000;fill-opacity:1;stroke:#000000;stroke-width:0.9628647px;stroke-linecap:butt;stroke-linejoin:miter;stroke-opacity:1"
       d="m 257.01453,201.0844 10.51527,-19.83774 10.51528,19.83774 c 0,0 -2.10305,6.61259 -10.51528,6.61259 -7.01018,0 -11.26637,-4.25093 -10.51527,-6.61259 z"
       id="path3819"
       inkscape:connector-curvature="0"
       sodipodi:nodetypes="cccsc"
       inkscape:export-filename="/Users/noelbenzinger/Documents/gj/spikes.png"
       inkscape:export-xdpi="90"
       inkscape:export-ydpi="90" />
    <path
       sodipodi:nodetypes="cccsc"
       inkscape:connector-curvature="0"
       id="path3821"
       d="m 257.01453,201.0844 10.51527,-19.83774 8.74495,16.4979 c 0,0 -0.95233,7.61453 -9.36456,7.61453 -7.01019,0 -10.64676,-1.91303 -9.89566,-4.27469 z"
       style="fill:#2e00f7;fill-opacity:1;stroke:#000000;stroke-width:0.9628647px;stroke-linecap:butt;stroke-linejoin:miter;stroke-opacity:1"
       inkscape:export-filename="/Users/noelbenzinger/Documents/gj/spikes.png"
       inkscape:export-xdpi="90"
       inkscape:export-ydpi="90" />
    <path
       sodipodi:nodetypes="cccsc"
       inkscape:connector-curvature="0"
       id="path3823"
       d="m 289.78502,162.40863 10.51528,-19.83774 10.51527,19.83774 c 0,0 -2.10305,6.61258 -10.51527,6.61258 -7.01019,0 -11.26638,-4.25093 -10.51528,-6.61258 z"
       style="fill:#000000;fill-opacity:1;stroke:#000000;stroke-width:0.9628647px;stroke-linecap:butt;stroke-linejoin:miter;stroke-opacity:1"
       inkscape:export-filename="/Users/noelbenzinger/Documents/gj/spikes.png"
       inkscape:export-xdpi="90"
       inkscape:export-ydpi="90" />
    <path
       style="fill:#f70000;fill-opacity:1;stroke:#000000;stroke-width:0.96286470000000002px;stroke-linecap:butt;stroke-linejoin:miter;stroke-opacity:1"
       d="m 289.78502,162.40863 10.51528,-19.83774 8.74493,16.49789 c 0,0 -0.95232,7.61453 -9.36455,7.61453 -7.01018,0 -10.64676,-1.91303 -9.89566,-4.27468 z"
       id="path3825"
       inkscape:connector-curvature="0"
       sodipodi:nodetypes="cccsc"
       inkscape:export-filename="/Users/noelbenzinger/Documents/gj/spikes.png"
       inkscape:export-xdpi="90"
       inkscape:export-ydpi="90" />
    <path
       style="fill:#000000;fill-opacity:1;stroke:#000000;stroke-width:0.9628647px;stroke-linecap:butt;stroke-linejoin:miter;stroke-opacity:1"
       d="m 310.73978,162.40863 10.51527,-19.83774 10.51527,19.83774 c 0,0 -2.10304,6.61258 -10.51527,6.61258 -7.01019,0 -11.26638,-4.25093 -10.51527,-6.61258 z"
       id="path3827"
       inkscape:connector-curvature="0"
       sodipodi:nodetypes="cccsc"
       inkscape:export-filename="/Users/noelbenzinger/Documents/gj/spikes.png"
       inkscape:export-xdpi="90"
       inkscape:export-ydpi="90" />
    <path
       sodipodi:nodetypes="cccsc"
       inkscape:connector-curvature="0"
       id="path3829"
       d="M 310.73978,162.40863 321.25505,142.57089 330,159.06878 c 0,0 -0.95234,7.61453 -9.36457,7.61453 -7.01018,0 -10.64676,-1.91303 -9.89565,-4.27468 z"
       style="fill:#f70000;fill-opacity:1;stroke:#000000;stroke-width:0.96286470000000002px;stroke-linecap:butt;stroke-linejoin:miter;stroke-opacity:1"
       inkscape:export-filename="/Users/noelbenzinger/Documents/gj/spikes.png"
       inkscape:export-xdpi="90"
       inkscape:export-ydpi="90" />
    <path
       sodipodi:nodetypes="cccsc"
       inkscape:connector-curvature="0"
       id="path3831"
       d="m 331.69453,162.40863 10.51527,-19.83774 10.51528,19.83774 c 0,0 -2.10305,6.61258 -10.51528,6.61258 -7.01018,0 -11.26637,-4.25093 -10.51527,-6.61258 z"
       style="fill:#000000;fill-opacity:1;stroke:#000000;stroke-width:0.9628647px;stroke-linecap:butt;stroke-linejoin:miter;stroke-opacity:1"
       inkscape:export-filename="/Users/noelbenzinger/Documents/gj/spikes.png"
       inkscape:export-xdpi="90"
       inkscape:export-ydpi="90" />
    <path
       style="fill:#f70000;fill-opacity:1;stroke:#000000;stroke-width:0.96286470000000002px;stroke-linecap:butt;stroke-linejoin:miter;stroke-opacity:1"
       d="m 331.69453,162.40863 10.51527,-19.83774 8.74495,16.49789 c 0,0 -0.95233,7.61453 -9.36456,7.61453 -7.01019,0 -10.64676,-1.91303 -9.89566,-4.27468 z"
       id="path3833"
       inkscape:connector-curvature="0"
       sodipodi:nodetypes="cccsc"
       inkscape:export-filename="/Users/noelbenzinger/Documents/gj/spikes.png"
       inkscape:export-xdpi="90"
       inkscape:export-ydpi="90" />
    <path
       style="fill:#000000;fill-opacity:1;stroke:#000000;stroke-width:0.9628647px;stroke-linecap:butt;stroke-linejoin:miter;stroke-opacity:1"
       d="m 289.78502,180.70204 10.51528,-19.83774 10.51527,19.83774 c 0,0 -2.10305,6.61257 -10.51527,6.61257 -7.01019,0 -11.26638,-4.25091 -10.51528,-6.61257 z"
       id="path3835"
       inkscape:connector-curvature="0"
       sodipodi:nodetypes="cccsc"
       inkscape:export-filename="/Users/noelbenzinger/Documents/gj/spikes.png"
       inkscape:export-xdpi="90"
       inkscape:export-ydpi="90" />
    <path
       sodipodi:nodetypes="cccsc"
       inkscape:connector-curvature="0"
       id="path3837"
       d="m 289.78502,180.70204 10.51528,-19.83774 8.74493,16.49788 c 0,0 -0.95232,7.61454 -9.36455,7.61454 -7.01018,0 -10.64676,-1.91302 -9.89566,-4.27468 z"
       style="fill:#f70000;fill-opacity:1;stroke:#000000;stroke-width:0.96286470000000002px;stroke-linecap:butt;stroke-linejoin:miter;stroke-opacity:1"
       inkscape:export-filename="/Users/noelbenzinger/Documents/gj/spikes.png"
       inkscape:export-xdpi="90"
       inkscape:export-ydpi="90" />
    <path
       sodipodi:nodetypes="cccsc"
       inkscape:connector-curvature="0"
       id="path3839"
       d="m 289.78502,198.99544 10.51528,-19.83774 10.51527,19.83774 c 0,0 -2.10305,6.61259 -10.51527,6.61259 -7.01019,0 -11.26638,-4.25093 -10.51528,-6.61259 z"
       style="fill:#000000;fill-opacity:1;stroke:#000000;stroke-width:0.9628647px;stroke-linecap:butt;stroke-linejoin:miter;stroke-opacity:1"
       inkscape:export-filename="/Users/noelbenzinger/Documents/gj/spikes.png"
       inkscape:export-xdpi="90"
       inkscape:export-ydpi="90" />
    <path
       style="fill:#f70000;fill-opacity:1;stroke:#000000;stroke-width:0.96286470000000002px;stroke-linecap:butt;stroke-linejoin:miter;stroke-opacity:1"
       d="m 289.78502,198.99544 10.51528,-19.83774 8.74493,16.4979 c 0,0 -0.95232,7.61453 -9.36455,7.61453 -7.01018,0 -10.64676,-1.91303 -9.89566,-4.27469 z"
       id="path3841"
       inkscape:connector-curvature="0"
       sodipodi:nodetypes="cccsc"
       inkscape:export-filename="/Users/noelbenzinger/Documents/gj/spikes.png"
       inkscape:export-xdpi="90"
       inkscape:export-ydpi="90" />
    <path
       style="fill:#000000;fill-opacity:1;stroke:#000000;stroke-width:0.9628647px;stroke-linecap:butt;stroke-linejoin:miter;stroke-opacity:1"
       d="m 310.73978,180.70204 10.51527,-19.83774 10.51527,19.83774 c 0,0 -2.10304,6.61257 -10.51527,6.61257 -7.01019,0 -11.26638,-4.25091 -10.51527,-6.61257 z"
       id="path3843"
       inkscape:connector-curvature="0"
       sodipodi:nodetypes="cccsc"
       inkscape:export-filename="/Users/noelbenzinger/Documents/gj/spikes.png"
       inkscape:export-xdpi="90"
       inkscape:export-ydpi="90" />
    <path
       sodipodi:nodetypes="cccsc"
       inkscape:connector-curvature="0"
       id="path3845"
       d="M 310.73978,180.70204 321.25505,160.8643 330,177.36218 c 0,0 -0.95234,7.61454 -9.36457,7.61454 -7.01018,0 -10.64676,-1.91302 -9.89565,-4.27468 z"
       style="fill:#f70000;fill-opacity:1;stroke:#000000;stroke-width:0.96286470000000002px;stroke-linecap:butt;stroke-linejoin:miter;stroke-opacity:1"
       inkscape:export-filename="/Users/noelbenzinger/Documents/gj/spikes.png"
       inkscape:export-xdpi="90"
       inkscape:export-ydpi="90" />
    <path
       sodipodi:nodetypes="cccsc"
       inkscape:connector-curvature="0"
       id="path3847"
       d="m 310.73978,198.99544 10.51527,-19.83774 10.51527,19.83774 c 0,0 -2.10304,6.61259 -10.51527,6.61259 -7.01019,0 -11.26638,-4.25093 -10.51527,-6.61259 z"
       style="fill:#000000;fill-opacity:1;stroke:#000000;stroke-width:0.9628647px;stroke-linecap:butt;stroke-linejoin:miter;stroke-opacity:1"
       inkscape:export-filename="/Users/noelbenzinger/Documents/gj/spikes.png"
       inkscape:export-xdpi="90"
       inkscape:export-ydpi="90" />
    <path
       style="fill:#f70000;fill-opacity:1;stroke:#000000;stroke-width:0.96286470000000002px;stroke-linecap:butt;stroke-linejoin:miter;stroke-opacity:1"
       d="M 310.73978,198.99544 321.25505,179.1577 330,195.6556 c 0,0 -0.95234,7.61453 -9.36457,7.61453 -7.01018,0 -10.64676,-1.91303 -9.89565,-4.27469 z"
       id="path3849"
       inkscape:connector-curvature="0"
       sodipodi:nodetypes="cccsc"
       inkscape:export-filename="/Users/noelbenzinger/Documents/gj/spikes.png"
       inkscape:export-xdpi="90"
       inkscape:export-ydpi="90" />
    <path
       style="fill:#000000;fill-opacity:1;stroke:#000000;stroke-width:0.9628647px;stroke-linecap:butt;stroke-linejoin:miter;stroke-opacity:1"
       d="m 331.69453,180.70204 10.51527,-19.83774 10.51528,19.83774 c 0,0 -2.10305,6.61257 -10.51528,6.61257 -7.01018,0 -11.26637,-4.25091 -10.51527,-6.61257 z"
       id="path3851"
       inkscape:connector-curvature="0"
       sodipodi:nodetypes="cccsc"
       inkscape:export-filename="/Users/noelbenzinger/Documents/gj/spikes.png"
       inkscape:export-xdpi="90"
       inkscape:export-ydpi="90" />
    <path
       sodipodi:nodetypes="cccsc"
       inkscape:connector-curvature="0"
       id="path3853"
       d="m 331.69453,180.70204 10.51527,-19.83774 8.74495,16.49788 c 0,0 -0.95233,7.61454 -9.36456,7.61454 -7.01019,0 -10.64676,-1.91302 -9.89566,-4.27468 z"
       style="fill:#f70000;fill-opacity:1;stroke:#000000;stroke-width:0.96286470000000002px;stroke-linecap:butt;stroke-linejoin:miter;stroke-opacity:1"
       inkscape:export-filename="/Users/noelbenzinger/Documents/gj/spikes.png"
       inkscape:export-xdpi="90"
       inkscape:export-ydpi="90" />
    <path
       sodipodi:nodetypes="cccsc"
       inkscape:connector-curvature="0"
       id="path3855"
       d="m 331.69453,198.99544 10.51527,-19.83774 10.51528,19.83774 c 0,0 -2.10305,6.61259 -10.51528,6.61259 -7.01018,0 -11.26637,-4.25093 -10.51527,-6.61259 z"
       style="fill:#000000;fill-opacity:1;stroke:#000000;stroke-width:0.9628647px;stroke-linecap:butt;stroke-linejoin:miter;stroke-opacity:1"
       inkscape:export-filename="/Users/noelbenzinger/Documents/gj/spikes.png"
       inkscape:export-xdpi="90"
       inkscape:export-ydpi="90" />
    <path
       style="fill:#f70000;fill-opacity:1;stroke:#000000;stroke-width:0.96286470000000002px;stroke-linecap:butt;stroke-linejoin:miter;stroke-opacity:1"
       d="m 331.69453,198.99544 10.51527,-19.83774 8.74495,16.4979 c 0,0 -0.95233,7.61453 -9.36456,7.61453 -7.01019,0 -10.64676,-1.91303 -9.89566,-4.27469 z"
       id="path3857"
       inkscape:connector-curvature="0"
       sodipodi:nodetypes="cccsc"
       inkscape:export-filename="/Users/noelbenzinger/Documents/gj/spikes.png"
       inkscape:export-xdpi="90"
       inkscape:export-ydpi="90" />
  </g>
</svg>
